<?xml version="1.0" encoding="UTF-8"?><svg id="Layer_2" xmlns="http://www.w3.org/2000/svg" viewBox="0 0 729.03 548.13"><defs><style>.cls-1{fill:#1b9686;}.cls-2{stroke-linecap:round;stroke-width:1.21px;}.cls-2,.cls-3,.cls-4{fill:#fff;}.cls-2,.cls-5,.cls-4{stroke:#204597;stroke-miterlimit:10;}.cls-6{fill:#7a90b8;}.cls-7{fill:#1e79bf;}.cls-8{fill:#778db6;}.cls-9{fill:#def1ee;}.cls-10{fill:#c0e5e1;}.cls-11{fill:#f5f6f6;}.cls-12{fill:#e1e1e1;}.cls-13{fill:#243f86;}.cls-5{fill:none;}.cls-14{fill:#cdd6e5;}.cls-15{fill:#74cabe;}.cls-16{fill:#204597;}.cls-17{fill:#ffd146;}.cls-18{fill:#ffeab7;}.cls-19{fill:#d2dae7;}.cls-20{fill:#4cc0b5;}</style></defs><g id="Layer_1-2"><g><path class="cls-9" d="M604.1,519.25s90.78-64.65,116.92-174.69c26.14-110.04-13.75-243.47-89.41-310.87-75.65-67.4-211.83-22.01-272.35,34.39l-60.52,56.4s-57.77,31.64-133.43,28.89C89.66,150.61,22.26,253.77,4.38,334.93c-17.88,81.15,24.76,188.44,24.76,188.44l574.96-4.13"/><path class="cls-18" d="M639.89,512.64v-28.43s-23.71,0-23.71,0c25.46-24.28,65.12-70.3,81.56-133.42,6.58,20.49,9.61,42.29,4.98,64.68-11.16,53.96-45.98,84.96-62.83,97.17M63.9,484.22c-3.96-7.66-7.66-16.81-10.65-27.68-5.37-19.53-6.91-36.57-5.07-53,3.12,31.52,10.9,61.16,16.96,80.68h-1.24m23.09-233.79c-2.69-15.55-5.15-35.93-3.89-66.37,3.73-89.58,78.39-130.64,155.53-144.33,7.87-1.4,15.41-2.03,22.63-2.03,52.95,0,89.31,33.95,119.99,49.82-3.35,2.69-6.52,5.43-9.49,8.2l-54.74,51.01s-48,26.28-112.22,26.28c-2.79,0-5.61-.05-8.47-.15-.89-.03-1.79-.05-2.68-.05-41.19,0-79.47,34.36-106.65,77.62"/><path class="cls-9" d="M20.28,497.58h118.62c-11.52-30.62-24.34-73.71-20.55-106.26,6.56-56.39,38.05-110.04,102.34-151.31,24.36-15.64,62.67-27.13,104.35-29.6-2.54-15.53-2.66-31.91-1.87-40.55,1.37-15.13,8.6-27.51,8.6-27.51,0,0,13.58-7.7,30.93-7.7,5.25,0,10.85,.71,16.52,2.54,24.42,7.91,33.01,45.74,30.26,65.68-.78,5.68-2.2,10.57-4.08,14.86,42.02,10.93,80.71,34.13,105.24,74.55,36.02,59.35,33.74,121.72,24.07,165.82v39.48s94.78,0,94.78,0c28.15-26.84,71.99-77.72,90.17-147.5-16.16-50.34-51.65-93.56-56.4-121.07-6.88-39.89,8.25-89.41-55.02-127.92-63.27-38.52-176.07-24.76-218.71-34.39-6.4-1.45-12.96-4.16-19.77-7.69-3.7,2.98-7.21,6.01-10.49,9.06l-60.52,56.4s-53.06,29.05-124.07,29.05c-3.09,0-6.2-.05-9.36-.17-.99-.03-1.98-.05-2.97-.05-45.53,0-87.86,37.98-117.91,85.81,5.77,33.4,12.46,46.64-8.42,82.06-19.22,32.6-31.34,59.1-34.49,87.22,3.45,34.84,12.06,67.62,18.75,89.19"/><path class="cls-9" d="M138.9,497.58h115.49c-1.92-6.91-6.54-32.32-6.54-32.32,0,0,39.2-33.59,41.26-39.09,1.38-3.67,.69-71.64,6.54-102.93,5.85-31.29,13.41-37.6,29.23-45.39,16.35-8.06,40.58-15.59,40.58-15.59,0,0-4.82,11.12-9.28,37.25-4.47,26.14-8.6,70.15-9.63,100.41-.94,27.44-1.59,86.82-1.7,97.66h48.63c-.83-7.76-4.07-39.33-2.56-42.64,.66-1.46,16.71-2.31,36.16-2.8v-124.1s19.78-1.38,41.31-1.38c20.09,0,41.7,1.2,50.17,5.85,17.54,9.63,16.16,42.99,16.16,42.99v82.6c9.67-44.1,11.96-106.47-24.07-165.82-24.54-40.42-63.22-63.62-105.24-74.55-.19,.43-.38,.85-.58,1.26,1.38,10.97,4.09,31.48,5.35,33.74l1.72,3.09,8.6,5.85s-16.51,23.38-36.8,27.17c-2.76,.52-5.1,.74-7.11,.74-12.75,0-11.46-8.99-11.46-8.99l3.09-6.53-2.7-23.38c-2.12,.33-4.27,.51-6.41,.51-8.91,0-17.72-3.04-23.56-10.82-5.31-7.08-8.6-18.28-10.51-29.95-41.68,2.47-79.99,13.96-104.35,29.6-64.29,41.27-95.78,94.91-102.34,151.31-3.79,32.55,9.04,75.64,20.55,106.26"/><path class="cls-7" d="M534.7,499.3v-123.79s1.37-33.36-16.16-42.99c-17.54-9.63-91.47-4.47-91.47-4.47v171.25s107.63,0,107.63,0"/><path class="cls-2" d="M403.97,212.16s4.47,37.48,6.19,40.58l1.72,3.09,8.6,5.85s-16.51,23.38-36.8,27.17c-20.29,3.78-18.57-8.25-18.57-8.25l3.09-6.53-4.13-35.76s36.8-16.85,39.89-26.13"/><path class="cls-4" d="M431.13,264.78l-13.41-5.85s-8.6,14.1-28.54,22.35c-19.94,8.25-20.29,3.44-21.32,0-1.03-3.44,.34-7.22,.34-7.22l-1.48-12.04-7.98,2.66-27.69,223.96,71.18,3.44,28.89-227.3h0Z"/><path class="cls-17" d="M365.45,262.26s-4.82,11.12-9.28,37.25c-4.47,26.14-8.6,70.15-9.63,100.41-1.03,30.26-1.72,99.38-1.72,99.38,0,0-88.72,0-89.75,0s-7.22-34.04-7.22-34.04c0,0,39.2-33.59,41.26-39.09,1.38-3.67,.69-71.64,6.54-102.93,5.85-31.29,13.41-37.6,29.23-45.39,16.35-8.06,40.58-15.59,40.58-15.59"/><path class="cls-16" d="M318.69,459.9c.46,0,.83-.37,.83-.83,0-2.46,.44-37.39,.86-71.17,.42-33.79,.86-68.72,.86-71.19,0-.46-.37-.83-.83-.83s-.83,.37-.83,.83c0,2.46-.44,37.39-.86,71.17-.42,33.79-.86,68.72-.86,71.19,0,.46,.37,.83,.83,.83h0Z"/><path class="cls-13" d="M497.5,451.5l.69,47.8h-104.54s-4.47-40.58-2.75-44.36c1.72-3.78,106.6-3.44,106.6-3.44"/><path class="cls-2" d="M331.75,142.36s-7.22,12.38-8.6,27.51c-1.38,15.13,0,53.99,12.38,70.5,12.38,16.51,38.17,11.69,49.86,1.72,10.73-9.15,21.32-19.26,24.07-39.2,2.75-19.94-5.85-57.77-30.26-65.68-24.41-7.91-47.46,5.16-47.46,5.16"/><path class="cls-4" d="M300.73,477.68s1.21,0,3.06-.05c.43-.02,.91,0,1.41-.02,1.78-.05,3.94-.1,6.11-.16,.48-.02,.98-.03,1.46-.05,2.16-.05,4.01,.22,5.73,.12h.05c.37-.02,.9,.03,1.33,.05,.22,.02,.42,.03,.55,.02,1-.18,1.2-.42,2.28-.9,1.4-.63,20.3-4.85,35.67-4.76,15.36,.07,29.13,1.11,31.38-.76,2.26-1.91,3.62-21.21-9.49-22.47l-16.12,6.12s-36.82-4.37-50.31,5.58c-13.53,9.96-13.11,17.29-13.11,17.29h0Z"/><path class="cls-13" d="M318.56,477.52c.37-.02,.9,.03,1.33,.05,.33-.53,1.03-1.5,1.41-1.89,4.16-4.24,14.19-6.98,17.83-7.86,.33-.08,.55-.42,.47-.75-.07-.33-.42-.53-.76-.47-5.3,1.28-16.55,4.56-19.75,9.92-.1,.15-.37,.66-.53,1h0Z"/><path class="cls-13" d="M311.31,477.45c.48-.01,.98-.02,1.46-.05,4.54-8.27,11.96-10.65,21.13-13.6l.54-.18c.31-.11,.51-.46,.4-.79-.11-.31-.44-.51-.79-.4l-.53,.18c-9.7,3.11-17.5,5.61-22.22,14.84h0Z"/><path class="cls-13" d="M303.79,477.63c.43-.01,.91,0,1.41-.02,2.75-5.79,11.86-15.47,23.91-17.72,.35-.06,.57-.38,.52-.73-.07-.33-.4-.56-.73-.5-12.41,2.33-22.42,12.47-25.11,18.97h0Z"/><path class="cls-16" d="M401.22,185.86s-7.57-3.61-12.9-13.76c-5.33-10.14-4.64-19.26-4.64-19.26,0,0-9.63-1.55-24.07,2.75-14.44,4.3-31.64,10.15-46.08,1.89s-14.44-21.49-7.39-26.99c7.89-6.16,23.56-2.41,23.56-2.41,0,0-6.02-5.85-2.75-9.28,3.27-3.44,15.13,1.03,15.13,1.03,0,0,14.44-11.52,41.78-10.15,27.34,1.38,40.41,20.46,41.95,41.78,1.55,21.32-6.19,42.64-6.19,42.64l-18.4-8.25h0Z"/><path class="cls-13" d="M331.7,202.46c.51,2.9,2.62,4.95,4.71,4.58,2.09-.37,3.36-3.02,2.85-5.92-.51-2.9-2.62-4.95-4.71-4.58-2.09,.37-3.37,3.02-2.85,5.92h0Z"/><path class="cls-13" d="M358.01,200.16c.47,3.13,2.67,5.39,4.92,5.06,2.25-.34,3.7-3.14,3.24-6.27-.47-3.13-2.67-5.39-4.92-5.06-2.25,.34-3.7,3.14-3.24,6.27h0Z"/><path class="cls-13" d="M337.82,190.51c-1.61,.27-3.23,0-4.85,.11-.39,.03-.77,.08-1.17,.12-.28,.02,.52-.08,.13-.02l-.25,.04c-.2,.04-.41,.08-.61,.13-.35,.08-.68,.21-1.03,.29-.31,.07-.66,.14-.98,.13-.18-.02-.35-.05-.53-.07l.33,.06-.66-.07c-.92-.22-1.49-1.28-1.23-2.17,.07-.26,.19-.49,.35-.7l.21-.27-.19,.22,.21-.28c.09-.15,.21-.28,.37-.37l.39-.3c.43-.3,.99-.47,1.49-.6,.96-.25,1.97-.37,2.95-.38,.98,0,1.95,.1,2.93,.23,.86,.12,1.81,.41,2.51,.93,.54,.4,.87,.91,.77,1.62-.08,.58-.54,1.24-1.16,1.35h0Z"/><path class="cls-13" d="M356.16,185.91c.22-.13,.44-.24,.67-.35,.19-.09,.73-.37,.32-.15l.44-.24c.67-.34,1.36-.56,2.08-.74,1.57-.4,3.22-.5,4.83-.33,1.72,.18,3.28,.6,4.77,1.49,.21,.13,.43,.25,.6,.43,.12,.15,.23,.3,.35,.45l-.1-.15c.46,.32,.73,.85,.72,1.4,0,.53-.28,.98-.74,1.24-.56,.31-1.09,.16-1.67,.01h.87c-.48,.07-.81,.09-1.29-.01-.02,0-.46-.11-.17-.05,.28,.06-.47-.06-.55-.07-.09-.01-.61-.06-.06-.01l-.3-.03c-.26-.03-.52-.06-.78-.08-1.14-.09-2.27-.14-3.4-.18-1.06-.03-2.13-.04-3.18,0-.45,.02-.9,.03-1.36,.05-.25,0-.15,.05,.03,0l-.28,.07c-.19,.05-.37,.11-.55,.18-.73,.28-1.61-.25-1.88-.93-.3-.73-.04-1.58,.65-1.99h0Z"/><path class="cls-13" d="M348,233.71c-1.58-3.17-4.45-5.5-7.77-6.99,2.88-.29,16.48-1.55,19.92,.4,3.85,2.18-.71,10.95-8.66,11.39-.84,.05-1.6-.02-2.32-.13-.06-1.6-.43-3.18-1.17-4.66h0Z"/><path class="cls-19" d="M410.85,215.26s-1.38,5.33-9.28,11.52c-7.91,6.19-19.37,10.72-19.37,10.72l-.92-4.01s11.86-5.16,17.37-10.83c5.5-5.67,6.19-8.77,6.19-8.77l6.02,1.38h0Z"/><path class="cls-13" d="M379.9,230.52c-6.37-.3-9.92,4.74-10.36,7.99-.44,3.26,2.61,6.91,9.77,3.7,8.89-3.98,6.96-11.4,.59-11.69h0Z"/><path class="cls-19" d="M405.86,175.89s-2.75-19.76-15.99-33.19c-25.28-25.62-46.77-24.07-46.77-24.07,0,0,.17-3.61,8.25-6.36,7.59-2.58,11-1.2,11-1.2,0,0,20.81,1.72,38.34,21.15,17.54,19.43,19.43,44.19,19.43,44.19l-14.27-.52h0Z"/><path class="cls-4" d="M407.75,173.48c16.56-2.81,25.79,10.15,26.48,23.21s-8.81,23-21.49,22.01c-28.54-2.23-25.28-41.78-4.99-45.22h0Z"/><path class="cls-8" d="M415.99,206c4.37,0,8.07-2.2,10.18-6.06,2.26-4.14,2.07-9.24-.48-13-.19-.28-.58-.36-.87-.16-.28,.19-.36,.58-.16,.87,2.3,3.37,2.46,7.96,.42,11.69-1.94,3.55-5.35,5.56-9.4,5.41-3.78-.1-6.99-1.83-9.03-4.87-2.33-3.47-2.86-8.27-1.36-12.21,1.49-3.92,5.57-6.59,9.27-6.1,.34,.04,.65-.19,.7-.54,.05-.34-.19-.65-.54-.7-4.34-.58-8.89,2.39-10.6,6.89-1.64,4.31-1.05,9.55,1.49,13.35,2.27,3.39,5.83,5.31,10.03,5.43h.35Z"/><path class="cls-17" d="M428.04,259.96s50.2,12.38,67.74,32.32c17.54,19.94,25.79,118.3,26.13,136.52,.34,18.23-12.38,25.79-19.94,30.95-7.57,5.16-40.92,14.44-67.74,15.82-26.82,1.37-52.27,0-52.27,0,0,0,.09-5.85-4.04-14.45-3.83-7.97-8.68-9.63-8.68-9.63l23.04-8.25s4.03-72.29,10.32-107.29c7.22-40.24,25.45-76,25.45-76h0Z"/><path class="cls-16" d="M344.82,431.7l.34-.07c.42-.19,.61-.68,.42-1.1-4.71-10.61-9.58-31.45-12.32-46.07l-.22-1.18c-.83-4.3-1.86-9.65,.2-13.34,1.05-1.88,3.43-5.97,5.71-9.9,2.37-4.08,4.61-7.93,5.23-9.08,1.21-2.25-2.6-8.24-8.12-16.47-1.49-2.22-2.78-4.14-3.53-5.44-1.97-3.4-.66-6.52,.86-10.13l.52-1.24c1.37-3.38,2.94-6.76,4.45-10.03,.62-1.33,1.23-2.67,1.84-4.02,.81-1.78,1.62-3.59,2.44-5.41,4.86-10.83,9.88-22.03,16.32-32.86,.23-.39,.1-.9-.29-1.14-.4-.23-.9-.1-1.14,.29-6.48,10.9-11.53,22.15-16.41,33.02-.82,1.83-1.63,3.63-2.43,5.41-.61,1.34-1.22,2.67-1.84,4.01-1.52,3.29-3.09,6.68-4.48,10.1l-.51,1.23c-1.55,3.68-3.15,7.49-.76,11.61,.78,1.35,2.08,3.29,3.59,5.54,2.88,4.29,8.87,13.22,8.04,14.75-.61,1.13-2.84,4.97-5.21,9.03-2.29,3.94-4.67,8.03-5.73,9.92-2.36,4.22-1.26,9.9-.38,14.47l.23,1.17c1,5.32,6.3,32.58,12.44,46.43,.14,.31,.44,.5,.76,.5h0Z"/><path class="cls-16" d="M393.82,434.62c.21,0,.43-.08,.59-.24,3.91-3.94,22.75-36.57,24.16-42.7,.77-3.36-1.16-11.88-3.02-20.12-1.44-6.38-2.94-12.99-2.51-14.77,.63-2.67,5.45-6.61,10.11-10.41,5.63-4.6,11.45-9.35,12.58-13.64,1.28-4.87,.19-35.35-.54-55.51-.26-7.25-.47-12.98-.47-15.02,0-.46-.37-.83-.83-.83h0c-.46,0-.83,.37-.83,.83,0,2.07,.2,7.82,.47,15.08,.68,18.85,1.81,50.4,.59,55.03-.99,3.76-6.85,8.55-12.02,12.77-5.1,4.17-9.91,8.1-10.68,11.32-.51,2.16,.89,8.35,2.51,15.52,1.74,7.68,3.71,16.39,3.02,19.38-1.38,6.02-19.88,38.04-23.71,41.9-.32,.33-.32,.85,0,1.18,.16,.16,.37,.24,.59,.24h0Z"/><path class="cls-16" d="M461.39,420.35h.12c.46-.07,.77-.49,.71-.95-.61-4.32-10.15-90.42-10.59-97.01-.03-.46-.43-.82-.89-.77-.46,.03-.8,.43-.77,.88,.44,6.61,9.99,92.81,10.6,97.14,.06,.41,.41,.71,.82,.71h0Z"/><path class="cls-16" d="M392.96,443.74l.31-.06c2.11-.86,11.45-4.01,23.28-7.99,23.86-8.05,56.55-19.07,62.76-22.3,.41-.21,.57-.71,.35-1.12-.21-.41-.71-.57-1.12-.35-6.1,3.17-40.06,14.62-62.53,22.2-11.85,4-21.21,7.15-23.37,8.03-.43,.17-.63,.66-.46,1.08,.13,.32,.44,.52,.77,.52h0Z"/><path class="cls-6" d="M404.44,478.02c21,0,61.72-3.79,92.65-14.73,.43-.15,.66-.63,.51-1.06-.15-.43-.63-.66-1.06-.51-39.08,13.82-93.74,16.18-103.91,13.9-.45-.1-.89,.18-.99,.63-.1,.45,.18,.89,.63,.99,2.2,.49,6.46,.77,12.17,.77h0Z"/><path class="cls-10" d="M644.83,271.56c-6.52,5.73-14.78,9.41-20.5,16.04-2.25,2.61-4.27,5.39-6.36,8.12-1.52,1.99-5.58,5.29-6.24,7.8-.29,1.1-.23-.39,.06-1.5l.05-.14c.57-5.07,.98-10.16,1.16-15.25,.18-5.08-.14-10.19,.18-15.26,.45-7.16,2.68-14.1,8.54-18.58,2.86-2.19,6.54-3.53,9.17-5.96,2.5-2.31,1.49-4.96,.03-7.53-1.37-2.41-3.04-4.78-3.57-7.56-.61-3.15,.58-6.41,2.18-9.09,3.4-5.72,10.96-12.09,18.11-11.24,5.96,.71,6.64,7.59,6.56,12.39-.08,4.66-.54,9.31-.59,13.97-.05,4.79,.77,9.49,.84,14.26,.12,8.11-3.63,14.29-9.6,19.54h0Z"/><path class="cls-10" d="M584.25,345.99c-1.81-4.33-3.9-8.38-6.46-12.31-3.51-5.4-7.41-10.67-9.77-16.72-2.41-6.18-2.06-12.78-2.29-19.29-.17-4.78-1.59-9.55-1.21-14.34,.18-2.3,1.51-6.02,4.48-5.64,2.31,.3,3.69,3.16,4.58,4.99,1.55,3.19,2.63,6.6,3.78,9.95,.45,1.31,.88,2.65,1.45,3.91,.33,.74,1.38,2.53,2.38,2.29,1.69-.42,.16-7.32-.09-8.54-1.26-6.14-3.16-11.84-3.43-18.15-.38-9.15,.33-20.05,9.28-25.06,2.34-1.31,5.31-2.09,7.53-.13,2.19,1.93,2.81,5.28,3.14,8.03,1,8.45-.99,16.46-3.7,24.42-2.24,6.57-4.9,13.35-5.1,20.37-.19,6.76,3.33,12.75,4.98,19.14,2.63,10.18,2.09,15.58,2.1,18.87,.02,4.13-.13,8.22-.43,12.33-.28,3.78-.61,7.57-1.07,11.34-.09,.76-.18,1.56-.28,2.36,1.45-3.5,1.96-7.51,3.17-11.03,2.14-6.26,4.63-12.38,6.68-18.67,1.7-5.19,3.3-10.42,5.54-15.42,2.1-4.69,4.64-9.64,8.56-13.07,2.37-2.08,5.24-3.29,8.41-3.27,2.03,.01,3.85,.72,5.78,1.23,2.38,.63,4.26,.41,6.22-1.09,6.42-4.93,8.37-13.78,13.12-20.02,3.54-4.66,11.95-12.6,18.13-7.52,3.28,2.69,4.18,7.9,4.01,11.89-.22,5.01-2.4,9.59-5.01,13.78-2.77,4.45-6.35,8.44-8.9,13.02-1.51,2.7-1.74,5.3-1.5,8.35,.22,2.87,.48,5.66-.5,8.43-2.94,8.33-12.13,7.16-19.27,7.38-5,.15-10.36,.9-15.11,2.49-5.49,1.85-9.05,5.42-11.02,10.84-1.42,3.93-2.18,8.39-4.85,11.72-1.26,1.57-2.92,2.73-4.75,3.54-2.79,1.23-11.28,1.77-11.34,.99-.21-2.6-1.44-5.34-2.21-7.8-1.45-4.62-3.15-9.13-5.02-13.6h0Z"/><path class="cls-10" d="M544.81,344.42c.74-4.76,.6-10.01,2.85-14.38,.16-.31,.59-.39,.88-.23,1.62,.9,1.68,3.51,1.82,5.1,.22,2.65,.05,5.31,.38,7.96,.57,4.65,1.65,9.44,3.32,13.82,1.89,4.96,5.34,7.77,10.34,9.31,3.21,.99,6.37,1.86,9.05,3.99,2.4,1.91,4.07,4.55,5.31,7.32,3.34,7.49,4.93,15.86,6.48,23.87,1.04,5.39,1.89,10.8,3.2,16.14,1.31,5.33,2.71,10.63,3.46,16.08,.13,.27,.26,.55,.38,.82,.34,.81-.93,1.25-1.37,.58-5.17-7.95-11.46-15.09-20.04-19.46-3.88-1.98-9.03-2.39-12.26-5.49-2.46-2.36-2.8-5.97-2.43-9.18,.48-4.22,2.51-7.7,4.62-11.3,1.16-1.98,2.52-4.1,2.06-6.5-.44-2.27-2.33-3.93-4.2-5.09-3.57-2.22-7.74-3.21-10.66-6.41-2.71-2.97-4.22-6.65-4.52-10.65-.4-5.33,.52-11.03,1.33-16.29h0Z"/><path class="cls-10" d="M615.22,371.87c4.56-5.87,10.06-10.93,16.25-15.04,3.3-2.19,11.09-6.52,12.66-.05,.92,3.79-2.79,7.52-5.23,9.9-3.67,3.57-7.92,6.65-11.01,10.77,3.83,1.22,7.84,1.46,11.17,4.11,3.94,3.14,5.71,9.2,1.8,13.04-1.91,1.87-4.43,3.02-6.81,4.17-3.08,1.49-6.23,2.85-9.39,4.17-6.83,2.85-13.74,5.74-19.56,10.42-5.93,4.76-11.51,12.81-11.98,20.58-.05,.74,.24,.07-.21-.27-.24,.22-1.06-.17-1.05-.6,.12-11.53,2.19-22.5,6.9-33.06,4.36-9.79,9.87-19.65,16.45-28.13h0Z"/><path class="cls-20" d="M630.96,264.57c-2.51,5.22-5.14,10.32-7.93,15.4-2.69,4.9-5.37,9.76-7.38,14.99-2.47,6.43-5.07,12.77-7.69,19.15-2.72,6.63-5.15,13.38-7.1,20.28-3.81,13.46-6.63,27.32-8.03,41.24-.71,7.08-1.03,14.2-.84,21.31,.15,5.56,.78,11.06,1.3,16.59,.54,5.75,.94,11.57,.45,17.35-.4,4.83-1.17,10.56-4.92,14.01-.73,.67-1.77-.17-1.34-1.04,4.45-9.13,4.2-19.08,3.35-28.98-.47-5.46-1.12-10.9-1.31-16.38-.23-6.98,.04-13.97,.7-20.92,1.29-13.66,4.02-27.17,7.55-40.42,1.81-6.79,4.06-13.45,6.64-20,2.59-6.55,5.58-12.93,8.09-19.51,4.54-11.91,11.45-22.47,17.58-33.58,.32-.58,1.15-.07,.87,.51h0Z"/><path class="cls-20" d="M592.63,361.98c-.72-8.67-1.49-17.03-4.41-25.3-1.36-3.86-3.02-7.61-4.33-11.49-1.09-3.2-2.71-7.59-1.88-11,.09-.38,.65-.36,.75,0,.56,1.94,.5,4.08,.9,6.07,.39,1.94,.92,3.85,1.52,5.73,1.28,4.01,2.96,7.85,4.41,11.8,2.81,7.62,4.25,16.07,3.63,24.19-.03,.38-.57,.38-.6,0h0Z"/><path class="cls-20" d="M642.9,312.13c-3.44,8.32-13.79,8.8-21.33,10.66-5.38,1.33-9.36,4.92-12.21,9.58-3.12,5.1-5.24,11.09-6.97,16.78l-.1-.03c2.11-9.97,5.13-21.98,15.41-26.61,8.24-3.72,19.09-1.85,24.36-10.75,.26-.44,1.06-.14,.85,.36h0Z"/><path class="cls-20" d="M598.07,360.66c-.41,.55-.79,1.13-1.21,1.67-.21,.27-.42,.52-.69,.74-.27,.22-.59,.5-.96,.49-.15,0-.26-.17-.18-.31,.17-.28,.48-.45,.72-.66,.25-.22,.5-.43,.74-.66,.48-.46,.92-.95,1.39-1.42l.18,.14h0Z"/><path class="cls-20" d="M619.61,387.05c-5.94,4.87-11.42,10.64-15.77,16.96-2.08,3.02-4,6.22-5.74,9.45-1.9,3.53-3.15,7.25-4.64,10.95-.11,.28-.63,.29-.59-.08,.82-7.82,5.78-14.53,9.75-21.04,2.06-3.38,4.62-6.11,7.38-8.93,2.85-2.91,5.75-5.67,9.08-8.01,.41-.29,.92,.37,.54,.69h0Z"/><path class="cls-20" d="M572.31,377.84c2.86,1.62,2.95,6.14,3.01,9.03,.11,5.54-1.26,10.75,1.17,16.03,2.2,4.77,5.71,8.76,8.47,13.19,2.58,4.15,5.13,9.45,5.08,14.44,0,.29-.45,.45-.58,.16-1.04-2.27-1.41-4.84-2.16-7.22-.84-2.67-2.01-5.1-3.52-7.44-2.66-4.12-5.92-7.86-8.07-12.29-2.27-4.67-1.94-9.29-1.79-14.34,.09-3.22,.42-8.4-2.18-10.8-.41-.38,.11-1.02,.58-.75h0Z"/><path class="cls-18" d="M591.44,431.04c11.52-.16,33.47-.29,33.47-.29l-5.43,40.33c-1.22,9.07-8.97,15.84-18.12,15.84h-9.46s-.92,0-.92,0h-9.46c-9.15,0-16.9-6.77-18.12-15.84l-5.43-40.33s21.95,.13,33.47,.29h0Z"/><polygon class="cls-15" points="34.47 356.94 100.21 487.15 291.86 488.53 232.72 355.1 34.47 356.94 34.47 356.94"/><path class="cls-20" d="M419.06,487.72l-.04-10.42h-124.07s-57.08-125.17-57.08-125.17H39.46s-4.99,4.82-4.99,4.82H228.3s59.32,130.67,59.32,130.67c0,0,131.44-.24,131.44,.1h0Z"/><path class="cls-14" d="M133.99,428.79c2.17,6.5,13.92,11.51,26.25,11.2,12.33-.31,20.57-5.82,18.41-12.32-2.17-6.49-13.92-11.51-26.25-11.2-12.33,.31-20.57,5.82-18.41,12.32h0Z"/><path class="cls-1" d="M287.62,488.44l.34-.07c.42-.19,.6-.68,.41-1.1l-59.54-131.16H34.47c-.46,0-.83,.37-.83,.83,0,.46,.37,.83,.83,.83H227.77s59.1,130.19,59.1,130.19c.14,.3,.44,.49,.76,.49h0Z"/><polyline class="cls-12" points="427.7 548.13 655.69 548.13 655.69 497.58 427.7 497.58 427.7 548.13"/><polyline class="cls-11" points="18.8 548.13 429 548.13 429 497.58 18.8 497.58 18.8 548.13"/><polyline class="cls-10" points="429 506.87 655.69 506.87 655.69 497.58 429 497.58 429 506.87"/><polyline class="cls-10" points="18.8 506.87 427.7 506.87 429 506.87 429 497.58 427.7 497.58 18.8 497.58 18.8 506.87"/><polygon class="cls-12" points="417.72 499.99 666.69 499.99 666.69 487.61 417.72 487.61 417.72 499.99 417.72 499.99"/><polygon class="cls-11" points="8.82 499.99 419.02 499.99 419.02 487.61 8.82 487.61 8.82 499.99 8.82 499.99"/><path class="cls-3" d="M485.26,222.39h80.48c4.98,0,9.02-4.04,9.02-9.02v-40.18c0-4.98-4.04-9.02-9.02-9.02h-80.48c-4.98,0-9.02,4.04-9.02,9.02v40.18c0,4.98,4.04,9.02,9.02,9.02h0Z"/><polygon class="cls-3" points="453.3 193.28 483.53 180.53 483.53 206.04 453.3 193.28 453.3 193.28"/><path class="cls-13" d="M539.02,193.28c0,3.07,2.49,5.57,5.57,5.57s5.57-2.49,5.57-5.57-2.49-5.57-5.57-5.57-5.57,2.49-5.57,5.57h0Z"/><path class="cls-13" d="M519.93,193.28c0,3.07,2.49,5.57,5.57,5.57s5.57-2.49,5.57-5.57-2.49-5.57-5.57-5.57-5.57,2.49-5.57,5.57h0Z"/><path class="cls-13" d="M500.84,193.28c0,3.07,2.49,5.57,5.57,5.57s5.57-2.49,5.57-5.57-2.49-5.57-5.57-5.57-5.57,2.49-5.57,5.57h0Z"/><path class="cls-5" d="M344.19,212.53c-.29,2.7,2.77,5.15,5.34,4.29"/></g></g></svg>